<svg xmlns="http://www.w3.org/2000/svg" fill="none" viewBox="0 0 70 68"><path fill="#fdfdfd" d="m40.956 61.033.218.45.008-.003c-.207.414-1.264 2.487-2.533 4.094-.605.767-1.258 1.427-1.89 1.75l-.132.095s-.009.006-.028.015c0 0-1.673.742-3.204 0l-.028-.015-.133-.095c-.631-.323-1.284-.984-1.889-1.75-1.268-1.607-2.326-3.68-2.532-4.094l.007.003.218-.45.034-.018c.258.486.504.916.739 1.307.614 1.023 1.159 1.785 1.675 2.62l.009.015c.793 1.277 1.76 1.951 1.76 1.951s.485.47 1.31.548h.004q.2.02.428.002.226.017.427-.002h.005c.824-.078 1.309-.548 1.309-.548s.967-.674 1.76-1.95l.01-.015c.515-.836 1.06-1.598 1.674-2.621.236-.392.481-.82.74-1.307z"/><path fill="#dc01ff" d="M68.944 37.725c.18.142.393.244.626.292a34 34 0 0 1-.355 3.066l-.17-.027c-.27 1.237-.792 2.65-1.4 4.032a33.7 33.7 0 0 0 1.299-7.363"/><path fill="#dc01ff" d="m69.043 41.056.17.026a34.3 34.3 0 0 1-2.282 7.927 34.5 34.5 0 0 1-7.428 11.008 35 35 0 0 1-5.31 4.354h-.002v.001c-.722.315-1.342.544-1.828.613l.803-.734c6.898-4.372 12.122-11.156 14.474-19.157l.001-.004.001-.003c.609-1.382 1.132-2.794 1.401-4.03Z"/><path fill="#ff8d02" d="M67.642 45.094c-2.352 8-7.575 14.785-14.474 19.158l2.675-2.448a17 17 0 0 0 2.564-2.347c2.646-2.422 4.746-5.48 6.27-8.151 1.873-3.28 2.88-5.977 2.962-6.204q0-.004.003-.008"/><path fill="#eaeaec" d="M67.637 45.103c-.083.226-1.088 2.924-2.961 6.204a1.9 1.9 0 0 0 .258-.927v-.001c.72-1.252 1.804-3.231 2.703-5.276"/><path fill="#eaeaec" d="M68.942 37.724a33.8 33.8 0 0 1-1.3 7.364v.002l-.002.004q0 .004-.003.008c-.9 2.045-1.983 4.024-2.703 5.276a1.93 1.93 0 0 0-.904-1.677 31.6 31.6 0 0 0 2.79-13.044 31.6 31.6 0 0 0-3.367-14.254 1.92 1.92 0 0 0 1.314-1.352 1.9 1.9 0 0 0 .022-.917 33.75 33.75 0 0 1 4.222 16.134"/><path fill="#fdfdfd" d="M64.029 48.702c.415.26.712.66.839 1.137q.072.27.065.54a51 51 0 0 1-.792 1.337l-.213.319a1.94 1.94 0 0 1-1.694.082q.187-.309.368-.622a1 1 0 0 0 .223.053l.072.008a1.217 1.217 0 0 0 1.297-1.45v-.002l-.015-.065-.005-.02-.02-.066a1 1 0 0 0-.056-.14l-.002-.007a1 1 0 0 0-.076-.134l-.002-.001-.046-.066q-.018-.025-.04-.05l-.032-.036q-.01-.013-.021-.024l-.04-.039q-.002-.004-.006-.006l-.025-.024h-.001q-.012-.012-.026-.023l-.057-.044h-.001v-.001q.157-.326.306-.656"/><path fill="#fdfdfd" d="M64.141 51.716s.317-.51.793-1.337a1.94 1.94 0 0 1-1.004 1.655z"/><path fill="#f05601" d="M64.677 51.306c-1.524 2.672-3.624 5.729-6.27 8.151 2.294-2.62 4.774-6.3 4.774-6.3l.749-1.122c.307-.168.568-.417.747-.729"/><path fill="#22245c" d="M63.883 49.496"/><path fill="#fdfdfd" d="m63.967 48.664.063.037q-.149.33-.305.657l-.003-.003-.026-.02-.026-.017-.06-.037q-.037-.021-.075-.04a1 1 0 0 0-.147-.06l-.037-.011a.3.3 0 0 0-.101-.025v-.726c.251.035.496.117.717.245"/><path fill="#22245c" d="M63.352 49.171q.02.005.036.012zm-.055-.014"/><path fill="#202541" d="M64.321 23.281a32 32 0 0 0-.867-1.877 2 2 0 0 1-.204.049V48.42c.252.033.496.116.718.244l.063.038a31.6 31.6 0 0 0 2.79-13.044c0-4.293-.842-8.458-2.5-12.377"/><path fill="#22245c" d="m63.297 49.157.042.011.012.003a1 1 0 0 1 .184.072l.076.04q.03.016.059.036l.026.018.026.02q.002 0 .003.002v.001q-.228.48-.475.954v-1.168a.2.2 0 0 1 .047.01Zm-.045 1.156v.078h-.041l.04-.078Z"/><path fill="#fefefe" d="M63.249 48.342v.078l-.065-.007z"/><path fill="#f1cf25" d="M63.25 48.075c-.11-.093-.28-.24-.5-.44V21.7l.139-.215h.011q.177 0 .35-.031v26.62Z"/><path fill="#fefefe" d="M62.75 47.636c.22.198.39.346.501.439v.268l-.065.07a2 2 0 0 0-.436.009z"/><path fill="#1e205d" d="M63.188 20.736q.03-.007.06-.017-.03.01-.06.017"/><path fill="#22245c" d="m63.25 49.145-.047-.008zm-.124 1.405.11.224-.314.152q.104-.186.204-.377Zm.084-.158-.082.157-.077-.157zm-.287-1.27q.038-.003.077-.002a1 1 0 0 1 .106.005l.03.002q.023.002.044.006l.07.012v1.168l-.04.078h-.16l-.033-.067-.139.067h-.128v-1.245q.025-.006.052-.01.01-.003.017-.002l.039-.005a.4.4 0 0 1 .065-.007"/><path fill="#22245c" d="m63.018 50.325.033.067h-.172z"/><path fill="#f05601" d="M63 52.274c.33 0 .649-.085.93-.239l-.749 1.121s-2.48 3.68-4.774 6.301l-2.564 2.347c-1.913 1.424-3.889 2.27-4.597 1.622.06-.148.133-.336.215-.543h.001a31.8 31.8 0 0 0 6.638-5.352l.01-.01a9 9 0 0 0 .196-.209l.019-.02a31.7 31.7 0 0 0 3.913-5.175c.24.103.499.157.761.157Z"/><path fill="#1e205d" d="M63.955 18.941a1.22 1.22 0 0 1-.581 1.733l-.059.023-.05.017-.014.005h-.003a1 1 0 0 1-.131.032l-.054.008-.037.004a.4.4 0 0 1-.07.005l-.06.002a1 1 0 0 1-.147-.01l-.056-.008h-.005l-.042-.009-.036-.008-.018-.004-.018-.004a1.2 1.2 0 0 1-.384-.182l-.008-.006-.02-.014-.018-.014a.8.8 0 0 1-.164-.155l-.034-.04q-.016-.018-.028-.037a1 1 0 0 1-.078-.117l-.03-.058a1 1 0 0 1-.06-.14l-.014-.038-.016-.053-.008-.03-.008-.035-.006-.029a.5.5 0 0 1-.017-.114l-.004-.055-.001-.06a1 1 0 0 1 .009-.147l.005-.038a.5.5 0 0 1 .021-.105q0-.002.002-.003l.01-.037q.005-.021.013-.042a1 1 0 0 1 .03-.085l.026-.06a1 1 0 0 1 .078-.139 1 1 0 0 1 .096-.13q.011-.014.024-.027l.037-.04.056-.054.008-.007.048-.039a1 1 0 0 1 .15-.102 1.22 1.22 0 0 1 1.666.446"/><path fill="#fefcfd" d="m62.299 20.845-.281.427a1.94 1.94 0 0 1-.912-.993 1.95 1.95 0 0 1 .172-1.784 1.93 1.93 0 0 1 1.62-.878 1.95 1.95 0 0 1 1.678.968l.001.002c.1.173.173.359.214.548v.002a1.93 1.93 0 0 1-.923 2.09 1.94 1.94 0 0 1-.965.26h-.012l.033-.052zm-.502-.77a1 1 0 0 0 .045.087 1 1 0 0 0 .139.193 1 1 0 0 0 .144.14l.02.016.019.014.028.02.046.031a1 1 0 0 0 .108.062l.047.023q.09.04.182.066l.018.004.018.004.036.009.043.008h.005a2 2 0 0 0 .204.017h.06l.042-.003.027-.003a1 1 0 0 0 .161-.027q.03-.007.061-.017h.002l.015-.005.05-.017a1 1 0 0 0 .193-.09 1.219 1.219 0 0 0-.009-2.116 1.22 1.22 0 0 0-1.361.107q-.025.018-.048.038l-.008.007a1 1 0 0 0-.093.094 1 1 0 0 0-.12.157l-.032.05a1.2 1.2 0 0 0-.116.276l-.01.037v.002l-.014.06-.008.046a1 1 0 0 0-.012.109l-.002.076.001.06.004.055.006.053q.004.031.01.061.002.015.006.029l.016.065.016.053a1 1 0 0 0 .06.149Z"/><path fill="#fefcfd" d="M62.748 21.479a1.9 1.9 0 0 1-.732-.207l.28-.427.623.589-.032.051q-.07 0-.139-.006"/><path fill="#f1cf25" d="M62.75 21.479q.069.006.139.006l-.139.215z"/><path fill="#fdfdfd" d="M62.75 48.62q.116.011.231.019l-.231.255z"/><path fill="#fdfdfd" d="M62.75 48.421a2 2 0 0 1 .436-.008l-.204.226a5 5 0 0 1-.231-.02z"/><path fill="#fdfdfd" d="m62.858 49.128-.038.006-.018.002q-.026.003-.052.01v-.252l.231-.255.204-.226.066.007v.726h-.003a.4.4 0 0 0-.068-.012 1 1 0 0 0-.18-.014 1 1 0 0 0-.142.008"/><path fill="#22245c" d="M62.75 49.146"/><path fill="#202541" d="M62.75 47.636c-1.308-1.188-4.293-4.202-5.803-8.16-.758-1.99-1.309-4.07-1.74-6.077l7.543-11.7z"/><path fill="#00e9bf" d="M62.017 21.272c.225.116.475.187.733.207v.22l-7.543 11.7a68 68 0 0 1-.363-1.804l6.963-10.005z"/><path fill="#fefefe" d="M62.75 48.421q-.253.034-.483.128c-4.246-.787-6.969-5.906-7.614-8.026-.689-2.26-1.623-5.503-2.148-10.744l-.005-.05c-.46-4.541-1.58-8.052-1.863-8.884 1.31.211 2.245.197 2.245.197s.115.548.82 4.02c.35 1.727.668 4.024 1.141 6.533l-.952 1.37.983.95.332-.516c.431 2.006.983 4.088 1.74 6.076 1.51 3.959 4.496 6.972 5.803 8.16v.786Z"/><path fill="#fdfdfd" d="M62.266 48.55q.23-.095.483-.128v.198a7 7 0 0 1-.483-.07"/><path fill="#fdfdfd" d="M62.266 48.55q.239.045.484.07v.275l-.342.377h-.001q-.036.02-.07.042a1 1 0 0 0-.19.151 1.2 1.2 0 0 0-.268.39v.002l-.001.002-.03.032a8 8 0 0 1-.735.013 1.93 1.93 0 0 1 1.153-1.354"/><path fill="#22245c" d="M64.023 49.672a1 1 0 0 1 .077.134l.002.007.03.067q.016.036.026.073l.02.066.005.02.015.066.013.078c.02.154.01.313-.03.468l-.023.076a1.3 1.3 0 0 1-.1.223 1.22 1.22 0 0 1-1.122.608l-.035-.002a1 1 0 0 1-.13-.018q-.005 0-.007-.002l-.072-.015-.01-.003-.056-.017-.02-.006q.161-.282.317-.567l.314-.152-.11-.225.083-.158h.04v-.078q.247-.473.476-.954h.002l.056.045.026.022.026.024.007.007q.02.018.039.038l.021.024a1 1 0 0 1 .118.152q.002-.003.002 0Zm-1.533-.441-.04.02z"/><path fill="#fdfdfd" d="m62.39 51.396.07.038.004.001a1 1 0 0 0 .14.058q-.18.315-.368.623a1.9 1.9 0 0 1-.705-.516l.68-.33.041.034.056.041.019.013.062.038Zm.02-2.124.342-.377v.25l-.044.01-.031.009-.057.017q-.003 0-.004.002a1 1 0 0 0-.124.049q-.021.008-.042.02-.018.007-.034.017z"/><path fill="#1e205d" d="M62.394 20.66"/><path fill="#22245c" d="m62.253 51.305-.042-.034.71-.344q-.155.285-.318.567l-.067-.025-.076-.035-.07-.037-.062-.038-.019-.012z"/><path fill="#22245c" d="M62.214 51.27a.4.4 0 0 1-.046-.04q.022.022.046.04"/><path fill="#fdfdfd" d="m61.9 50.867.01.02a.4.4 0 0 0 .028.054h.001q.014.03.033.054a1 1 0 0 0 .148.189l.018.02.03.026q.022.023.045.04l-.68.331a2 2 0 0 1-.275-.422z"/><path fill="#202541" d="M62.03 52.015q.1.057.205.102a31.7 31.7 0 0 1-4.128 5.403l-.01.01c-2.143 2.183-6.038 3.825-6.038 3.825l.17-.436c.516-1.263 1.328-3.642 2.04-5.792l7.262-3.526q.207.241.499.414"/><path fill="#22245c" d="M61.985 51.02a1 1 0 0 1-.047-.078l-.001-.001-.029-.054-.01-.02.98-.475h.171l.077.157a19 19 0 0 1-.204.377l-.71.344-.046-.04-.01-.01-.02-.018-.018-.018a1 1 0 0 1-.133-.165Zm.422-1.747-.528.584.025-.056.038-.072a1.2 1.2 0 0 1 .33-.368q.031-.025.065-.046z"/><path fill="#22245c" d="m61.841 50.727-.017-.054-.014-.053-.005-.024-.007-.036-.007-.04-.005-.038a1.2 1.2 0 0 1-.003-.26l.001-.013.004-.036.012-.068a1 1 0 0 1 .035-.137l.008-.023v-.001l.008-.023.005-.014.021-.05v-.002l.529-.584.006-.003q.016-.01.035-.018a1 1 0 0 1 .092-.042q.036-.016.074-.027l.003-.001.057-.017.031-.009.044-.01v1.246h.129l-.98.476q0-.006-.003-.01l-.026-.059z"/><path fill="#fefcfd" d="M61.87 18.893"/><path fill="#1e205d" d="M61.797 20.075"/><path fill="#fdfdfd" d="M61.115 49.905q.37.01.734-.013l.03-.032-.024.063-.008.022v.001l-.008.023a1 1 0 0 0-.035.137 1 1 0 0 0-.016.105l-.002.013-.003.05a1 1 0 0 0 .012.247l.007.04.007.036.005.024a1 1 0 0 0 .031.108 1 1 0 0 0 .052.13l.004.01-.642.311a1.95 1.95 0 0 1-.144-1.275"/><path fill="#1e205d" d="M61.7 19.78q0 .013.005.028l-.006-.029Zm-.016-.115"/><path fill="#1f2a48" d="M57.501 13.172a32 32 0 0 1 4.068 4.974q-.168.158-.292.35L45.79 11.062a15 15 0 0 0-.759-.78l-3.988-5.854a31.67 31.67 0 0 1 15.538 7.86q.468.43.92.883Z"/><path fill="#fdfdfd" d="M61.257 51.179q.108.226.275.422l-7.262 3.526.218-.661z"/><path fill="#986f09" d="M59.307 12.37c.78.931 2.98 3.606 3.963 5.284a1.94 1.94 0 0 0-1.704.492 32 32 0 0 0-4.988-5.858c1.005-.098 1.986-.023 2.73.081Z"/><path fill="#f9b309" d="m45.79 11.063 15.486 7.432a2 2 0 0 0-.216.451l-14.482-6.95q-.374-.475-.789-.933Zm15.186 8.717q.03.254.128.5h-7.933a19 19 0 0 1-.53-.5z"/><path fill="#01ff94" d="m60.952 12.57-1.004-.122a34.2 34.2 0 0 0-8.514-6.673l.542-.45a34.6 34.6 0 0 1 7.53 5.712q.75.75 1.446 1.533"/><path fill="#ff7801" d="M69.652 35.012a34.4 34.4 0 0 0-2.72-12.965 34.5 34.5 0 0 0-5.982-9.477l-1.005-.122.03.03a34 34 0 0 1 4.235 5.652q.214.195.364.454v.001c.1.173.173.359.214.549l.001.001a33.75 33.75 0 0 1 4.224 16.392 34 34 0 0 1-.07 2.197c.18.142.394.244.626.292a35 35 0 0 0 .087-2.49q0-.255-.004-.514"/><path fill="#e5e2e5" d="m59.309 12.37.638.078.03.03c-.19-.035-.416-.074-.668-.109Z"/><path fill="#986f09" d="M59.309 12.37c.252.034.478.073.667.11a34 34 0 0 1 4.234 5.65 1.95 1.95 0 0 0-.938-.477c-.984-1.677-3.183-4.353-3.963-5.284Z"/><path fill="#202541" d="M57.5 58.145a31.8 31.8 0 0 1-6.04 4.738c.2-.505.44-1.12.6-1.528 0 0 3.895-1.641 6.038-3.824q-.294.311-.598.614"/><path fill="#f05601" d="m55.844 61.804 2.563-2.347a16.8 16.8 0 0 1-2.563 2.347"/><path fill="#ffe9b6" d="M55.717 50.645s-.544 1.725-1.23 3.82l-1.35.654c.614-2.05.978-3.873 1.12-4.657.837.153 1.46.183 1.46.183"/><path fill="#fefefe" d="m55.206 33.399-.332.515-.983-.95.952-1.369q.167.889.363 1.804"/><path fill="#fdfdfd" d="m53.137 55.12 1.35-.655-.219.662-1.334.648q.106-.332.203-.655"/><path fill="#f6515b" d="M51.741 49.673q.27.126.535.236c.668.272 1.381.445 1.983.555a46 46 0 0 1-1.12 4.657l-2.569 1.246c.516-2.505 1.01-5.645 1.171-6.694"/><path fill="#fefefe" d="M53.17 20.28h-.705v-.5h.176c.225.22.406.387.53.5Z"/><path fill="#ff8d02" d="M52.364 64.986q-.24.036-.434.014.627-.361 1.236-.749z"/><path fill="#fde5d0" d="M52.059 61.355c-.048.022-.816-.527-1.18-.79q.078-.128.15-.257c.781-1.373 1.413-2.993 1.904-4.534l1.335-.648c-.712 2.15-1.524 4.529-2.039 5.792 0 0-.067.175-.17.437"/><path fill="#ff8d02" d="m51.977 5.324-.543.45A33.8 33.8 0 0 0 35 1.536V.893c4.679 0 9.217.916 13.49 2.722a35 35 0 0 1 3.487 1.709m-.734 58.102c.708.648 2.684-.198 4.597-1.622l-2.675 2.448a34 34 0 0 1-1.237.748.78.78 0 0 1-.451-.188c-.452-.415-.525-.671-.324-1.165z"/><path fill="#a70d75" d="M51.742 49.672c-.161 1.05-.655 4.19-1.17 6.694l-2.22 1.077c.56-3.972.516-9.43.516-9.43s1.435.985 2.874 1.66Z"/><path fill="#feca3c" d="M54.652 40.524c-.689-2.26-1.623-5.504-2.148-10.744l-.005-.05c-.46-4.542-1.58-8.053-1.864-8.885a14.3 14.3 0 0 1-2.979-.8c.33.526.97 1.668 1.494 3.347.743 2.38.874 5.483.874 5.483s.014.34.042.885c.05.973.143 2.602.275 4.147.207 2.414.606 6.372 2.13 10.172 1.423 3.546 5.175 5.738 8.641 5.827a1.93 1.93 0 0 1 1.153-1.355c-4.245-.788-6.968-5.907-7.613-8.027"/><path fill="#fefefe" d="M40.312 10.971a19.5 19.5 0 0 1 2.343 1.642c.745.601 1.456 1.25 2.124 1.946-.571-.78-1.237-1.489-1.941-2.157a17 17 0 0 0-2.29-1.808c-.41-.266-.833-.515-1.27-.738-.44-.218-.892-.417-1.355-.586a9 9 0 0 0-.352-.117q-.089-.03-.177-.057l-.18-.048c-.12-.031-.238-.069-.36-.093l-.364-.08c-.122-.026-.245-.04-.368-.06l-.185-.028q-.092-.012-.185-.02c-.124-.01-.247-.025-.372-.034l-.118-.004v-2.1c3.764.075 6.388 1.07 8.367 2.491l1.483 2.175 1.465.702c.694.877 1.3 1.786 1.879 2.666a31.5 31.5 0 0 0 4.185 5.118h-.176v.5h.706c.112.102.178.158.185.165a18 18 0 0 1-3.653-.88v-.001c-1.245-.649-2.484-1.535-4.066-2.772s-2.623-2.277-5.065-3.915c-2.159-1.448-4.74-1.615-5.31-1.636V9.298l.085.003q.174.013.347.03.087.007.174.017l.173.025c.115.02.232.031.346.055.46.082.912.208 1.36.35q.668.226 1.31.526c.213.105.426.208.634.32.21.108.415.23.621.347"/><path fill="#fdfdfd" d="m48.35 57.443 2.219-1.077q-.065.32-.132.62l-2.18 1.058q.05-.293.092-.6Z"/><path fill="#fdfdfd" d="M50.438 56.987q.066-.302.131-.62l2.568-1.247q-.097.324-.203.655z"/><path fill="url(#a)" d="m48.26 58.044 2.18-1.058q-.075.35-.151.67c-.721 3.057-2.929 5.721-5.857 7.533s-7.67 2.134-7.67 2.134c.631-.323 1.284-.983 1.889-1.75 3.248.536 8.255-2.29 9.256-5.865.137-.487.254-1.052.354-1.664Z"/><path fill="url(#b)" d="M54.39 47.932c-1-.895-2.562-3.543-3.229-6.229-.666-2.686-.895-4.127-1.027-7.556a147 147 0 0 1-.108-4.389c-.005-.582-.001-.882-.001-.882s-.131-3.103-.874-5.483c-.525-1.68-1.163-2.821-1.494-3.348l-.126-.051c-2.614-1.072-3.488-1.58-3.515-1.596.045.06 2.97 3.982 3.67 8.401.145.913.226 1.784.263 2.623.147 3.254-.361 6.013-.361 8.76 0 3.456 1.491 9.942 8.26 11.087.001 0-.458-.442-1.458-1.337"/><path fill="#202541" d="m41.181 61.48 7.078-3.436c-.1.612-.217 1.177-.354 1.664-1.002 3.576-6.008 6.401-9.257 5.866 1.27-1.607 2.327-3.68 2.533-4.094"/><path fill="#ffbb01" d="M40.572 12.877c2.442 1.637 3.483 2.678 5.064 3.914 1.581 1.238 2.822 2.123 4.066 2.772-3.476-1.21-6.522-3.288-8.9-4.917-3.18-2.179-5.54-2.632-5.54-2.632v-.773c.569.02 3.15.189 5.31 1.636"/><path fill="#202541" d="M61.06 18.947c-.087.266-.117.55-.083.832h-8.335a31.5 31.5 0 0 1-4.185-5.117c-.58-.88-1.185-1.789-1.879-2.666l14.482 6.95Z"/><path fill="url(#c)" d="M43.67 26.517c1.082.346 2.002.99 2.465 1.352.142.486.256.927.318 1.264l-2.719-.25a4 4 0 0 0 .228-.282c.088-.13.049-.278-.09-.278l.054-.184c.237.085.349.066.377-.046.036-.147-.116-.218-.902-.647s-1.163-.565-1.803-.533c-.639.033-1.614.497-2.324 1.426-.298.388-.64.695-.947.958-.394.338-.733.604-.844.878-.279-.097-.792-.2-1.088-.172v-.85c0-2.002.585-2.622 1.252-2.785.666-.165 2.835-.219 4.89-.077.387.027.769.11 1.133.226"/><path fill="#fefefe" d="m45.791 11.063-.338-.162-.422-.618q.4.38.76.78m-.761-.78c-.43-.41-.895-.802-1.4-1.164l-3.278-4.814q.345.058.689.124z"/><path fill="#fefefe" d="m46.58 11.996-1.465-.703-1.482-2.174c.505.362.969.753 1.398 1.164l.422.619.338.162q.415.457.79.932Z"/><path fill="#fffdfe" d="M40.923 61.015q.159-.297.323-.625c.543-1.081.956-1.789 1.285-2.358v-.002c.325-.563.565-.989.765-1.505.4-1.04 1.08-3.473 1.261-5.594.14-1.641-.3-3.313-1.011-4.812-.208-.437-.44-.86-.685-1.264-1.09-1.785-5.023-4.454-5.482-4.692-.459-.237-.328-.4-.196-.5.13-.098 1.426-.851 1.426-.851s1.983.663 3.588 2.096c1.606 1.433 2.107 2.383 2.107 2.383s-1.614-4.16-1.336-4.25 2.523 1.31 3.31 3.4c.787 2.087.615 6.411 0 8.819-.615 2.407-1.975 4.39-2.835 6.069a117 117 0 0 1-1.836 3.39l-.65.315z"/><path fill="#15134a" d="M40.547 10.594a17 17 0 0 1 2.29 1.808c.704.668 1.37 1.377 1.941 2.157a23 23 0 0 0-2.124-1.946 19 19 0 0 0-1.144-.865 19 19 0 0 0-1.198-.777c-.206-.118-.41-.239-.622-.346-.208-.113-.421-.216-.633-.32a13 13 0 0 0-1.312-.526c-.447-.142-.9-.27-1.359-.35-.114-.024-.23-.037-.346-.055l-.172-.025q-.087-.01-.175-.017-.173-.017-.347-.03l-.084-.003v-.57l.118.004c.125.008.248.022.372.033l.185.02.185.028c.123.02.247.035.368.06l.364.08c.122.025.24.063.36.093l.18.048.177.057q.177.056.352.117c.463.169.915.368 1.354.586q.656.338 1.27.74Z"/><path fill="#250ef0" d="M42.528 52.41s.34 1.074.373 2.625c.027 1.315-.008 1.932-.232 2.618a6 6 0 0 1-.139.377v.002c-.329.57-.742 1.277-1.285 2.358a28 28 0 0 1-1.062 1.932c-.742-.057-3.168-.252-3.62-.343-.536-.11-.7-.513 0-1.07.699-.557 5.321-4.968 5.614-6.355.285-1.35.015-2.711 0-2.782q.212.359.35.637Z"/><path fill="#f9db00" d="M42.67 57.653c.865-1.365 1.368-8.865 1.128-10.644a3 3 0 0 0-.27-.882l.017-.008c.712 1.5 1.151 3.171 1.012 4.813-.18 2.12-.86 4.552-1.262 5.593-.2.517-.44.943-.764 1.505q.08-.194.14-.377Z"/><path fill="#162653" d="M43.799 47.009c.24 1.78-.264 9.279-1.128 10.644.224-.686.26-1.303.231-2.618-.032-1.551-.373-2.626-.373-2.626-.002-.037-.065-1.338-.15-2.889-.088-1.572-.285-2.827-1.224-4.258a6 6 0 0 0-.163-.237c-.953-1.325-2.444-2.41-3.858-2.307-1.496.11-2.134.765-2.134.765v-1.081s.938-.689 2.188-.689c1.252 0 2.661 1.005 3.492 1.578.687.475 2.21 1.492 2.85 2.837.132.28.227.575.269.881"/><path fill="#071c50" d="M41.812 29.32c-1.008-.06-1.75-.977-1.75-1.01s.831-.655 1.52-.783c.69-.127 1.648.291 2.074.496q.157.075.27.116l-.053.184a.3.3 0 0 0-.107.024c-.22.09-.946 1.035-1.954.974Z"/><path fill="#fdfdfd" d="M48.258 58.044 41.18 61.48l.037-.074.387-.689 6.745-3.275q-.042.31-.091.602"/><path fill="#fffdfe" d="m41.175 61.483-.218-.45.65-.315-.388.689-.037.073z"/><path fill="#ecedf6" d="m39.94 2.811 1.103 1.618a22 22 0 0 0-.69-.124l-.826-1.212z"/><path fill="url(#d)" d="M39.605 35.029c.615.893.718 1.572.87 2.346.114.585.182 1.38.208 1.733a4 4 0 0 0-.348-.194c-.722-.344-.82-.463-.787-.532.033-.07.536-.418.385-1.061s-1.09-2.391-2.49-2.089c0 0-.127-4.482.015-4.995l.023-.063c.11-.275.45-.54.843-.878l.095.052c.039-.025.15-.047.397-.052-.278.203-.658.548-.67.597-.013.054-.123 2.146.09 2.94.214.795.756 1.303 1.37 2.196Z"/><path fill="#ecedf6" d="M40.353 4.305a32 32 0 0 0-3.421-.39A1.94 1.94 0 0 0 35 2.093v-.557c5.957 0 11.56 1.538 16.434 4.238a34.2 34.2 0 0 1 8.514 6.674l-.637-.079c-.744-.104-1.724-.179-2.729-.08a31.7 31.7 0 0 0-15.538-7.86l-1.102-1.618-.414.281z"/><path fill="url(#e)" d="m46.473 29.256-.022-.123-2.718-.25c-.279.314-.767.79-1.296 1.045-.75.36-1.836-.27-2.287-.573s-.979-.3-1.258-.11l-.076.053c.682-.014 1.046.407 1.756.958.71.552 1.377.754 2.3.36.924-.393 2.935-1.162 2.935-1.162s-.787 1.747-2.24 4.488c-1.453 2.74-1.76 4.368-1.847 4.902-.055.343.1.634.219.797.094-.349.306-.727.648-1.27.145-.229.311-.487.502-.785.828-1.295 2.377-3.866 2.778-4.668.276-.553.553-1.48.633-2.418a5.2 5.2 0 0 0-.027-1.244"/><path fill="#f6f6f6" d="M45.808 29.452s-.787 1.747-2.24 4.488-1.76 4.368-1.847 4.903c-.055.343.1.633.219.796a1.5 1.5 0 0 0-.054.427s-.586-.57-1.2-.956c-.027-.353-.095-1.148-.21-1.734-.15-.773-.254-1.453-.869-2.346-.614-.893-1.154-1.4-1.368-2.195-.212-.794-.103-2.886-.09-2.94.012-.048.392-.393.67-.597.681-.014 1.046.406 1.756.958s1.376.753 2.3.36c.922-.394 2.933-1.164 2.933-1.164"/><path fill="url(#f)" d="M40.06 28.31c0 .032.741.949 1.75 1.01s1.733-.883 1.954-.974a.3.3 0 0 1 .106-.024c.139 0 .178.147.09.278-.03.047-.11.15-.228.281-.279.315-.767.791-1.296 1.046-.75.36-1.836-.27-2.286-.573-.452-.304-.98-.3-1.258-.11q-.037.024-.076.053c-.248.005-.358.026-.398.052l-.094-.052c.308-.263.65-.57.947-.958.71-.928 1.686-1.392 2.324-1.426.64-.032 1.017.102 1.804.532.785.43.938.5.9.648-.027.11-.139.131-.376.046a3 3 0 0 1-.27-.116c-.426-.205-1.385-.623-2.074-.496-.687.128-1.519.75-1.519.782Z"/><path fill="url(#g)" d="M50.343 33.906c.207 2.414.606 6.371 2.13 10.172 1.424 3.546 5.176 5.738 8.642 5.826-.1.433-.045.882.143 1.273l-6.77 3.287c.688-2.096 1.232-3.82 1.232-3.82s-.623-.03-1.46-.182a10.2 10.2 0 0 1-1.982-.555 11 11 0 0 1-.535-.236c-1.44-.675-2.874-1.659-2.874-1.659s.045 5.459-.516 9.43l-6.745 3.275a119 119 0 0 0 1.836-3.39c.86-1.678 2.22-3.66 2.835-6.069.615-2.406.787-6.731 0-8.82-.787-2.088-3.032-3.488-3.31-3.398-.279.09 1.336 4.25 1.336 4.25s-.5-.95-2.107-2.383c-1.606-1.434-3.588-2.096-3.588-2.096-.475-.123-1.131.081-1.598.515s-1.238 1.08-1.959 1.098L35 40.423v-.7c.631-.073 1.503-.86 1.688-1.15.185-.291.196-.573.27-.573s.78.215 1.146.157c.367-.057.735-.382.86-.553.126-.172.112-.32-.227-.77-.338-.45-.775-.59-1.194-.289-.417.3-.9.472-.9.472s-.254-.032-.254-1.793c0-1.517.005-3.44.007-5.223.298-.029.81.075 1.088.172l-.022.064c-.142.513-.016 4.995-.016 4.995 1.4-.303 2.34 1.446 2.491 2.089s-.352.99-.385 1.06.065.188.787.532q.172.083.348.195c.616.386 1.2.956 1.2.956a1.5 1.5 0 0 1 .054-.426c.094-.35.307-.728.649-1.27.145-.23.31-.488.502-.786.828-1.294 2.377-3.865 2.778-4.668.276-.552.553-1.48.633-2.417v-.001c.037-.423.034-.85-.027-1.243l-.021-.123a13 13 0 0 0-.318-1.264c-.418-1.427-1.076-3.246-1.349-3.968-.377-1-1.196-4.538-4.261-7.092-2.482-2.07-4.754-2.305-5.527-2.32V9.29h.002l.264.008v2.716s2.36.453 5.54 2.632c2.378 1.629 5.424 3.705 8.9 4.917v.001c1.172.409 2.392.719 3.653.88l-.185-.165h7.933a1.93 1.93 0 0 0 .912.993l-.21.318-6.964 10.005c-.473-2.509-.791-4.806-1.141-6.533-.705-3.472-.82-4.02-.82-4.02s-.934.014-2.245-.197c-.88-.142-1.93-.384-2.98-.8l-.126-.052c-2.614-1.072-3.488-1.58-3.515-1.596.046.06 2.97 3.982 3.67 8.401.145.913.226 1.784.263 2.623.147 3.255-.361 6.013-.361 8.76 0 3.456 1.492 9.942 8.26 11.088 0 0-.458-.443-1.459-1.337-1-.896-2.562-3.544-3.228-6.23-.667-2.685-.896-4.127-1.027-7.555-.078-2.046-.125-4.379-.11-5.247"/><path fill="#15134a" d="m40.354 4.305 3.28 4.813c-1.98-1.42-4.605-2.415-8.368-2.49v2.1l-.256-.008H35V5.96a1.937 1.937 0 0 0 1.932-2.046 32 32 0 0 1 3.422.39Z"/><path fill="#fefefe" d="M33.778 4.027a1.22 1.22 0 1 0 2.441 0 1.22 1.22 0 0 0-2.44 0ZM35 2.093a1.937 1.937 0 0 1 1.935 1.934 1.937 1.937 0 0 1-1.936 1.935 1.937 1.937 0 0 1-1.932-2.047A1.94 1.94 0 0 1 35 2.093"/><path fill="url(#h)" d="M36.76 67.323s4.743-.322 7.67-2.134c2.93-1.812 5.136-4.477 5.858-7.533q.075-.32.151-.67l2.496-1.212c-.492 1.542-1.123 3.161-1.904 4.534a9 9 0 0 1-.15.257c-1.29 2.136-3.393 4.094-6.126 5.372q0 .003-.001.001a31.5 31.5 0 0 1-8.125 1.481l.132-.096Z"/><path fill="url(#i)" d="m36.63 67.42.303-.018a31.5 31.5 0 0 0 7.821-1.463c-2.306 1.08-5.061 1.679-8.152 1.496v-.001l.027-.015Z"/><path fill="#1e205d" d="M35 2.807a1.22 1.22 0 1 1-.002 2.44A1.22 1.22 0 1 1 35 2.807"/><path fill="#15134a" d="m35.01 8.719.256.008v.57l-.264-.008H35v-.571z"/><path fill="#ecedf6" d="M34.997 1.536v.557c-1.03 0-1.875.808-1.932 1.822a32 32 0 0 0-3.422.39l.826-1.212-.414-.281-1.102 1.618a31.67 31.67 0 0 0-15.538 7.86c-1.004-.099-1.985-.024-2.728.08a13 13 0 0 0-.667.11C16.236 5.753 25.132 1.536 34.996 1.536Z"/><path fill="#2702ff" d="M34.997.894v.643c-9.864 0-18.76 4.217-24.979 10.943a34 34 0 0 0-2.697 3.31l-.618-.274a35 35 0 0 1 3.787-4.477 34.5 34.5 0 0 1 11.017-7.422A34.4 34.4 0 0 1 34.997.894"/><path fill="#15134a" d="M29.643 4.305a32 32 0 0 1 3.421-.39 1.937 1.937 0 0 0 1.932 2.046V8.72h-.01l-.255.009v-2.1c-3.764.075-6.389 1.07-8.368 2.49l3.28-4.813Z"/><path fill="#15134a" d="M34.986 8.719h.01v.571h-.001l-.264.008v-.57l.255-.01Z"/><path fill="url(#j)" d="M46.133 27.868c-.418-1.428-1.076-3.246-1.349-3.969-.377-.999-1.196-4.537-4.261-7.091-2.482-2.07-4.754-2.305-5.527-2.32-.773.015-3.044.25-5.527 2.32-3.065 2.554-3.884 6.092-4.261 7.091-.273.723-.93 2.541-1.349 3.969.462-.361 1.382-1.006 2.465-1.352-.147-.336-.449-1.213-.24-2.38.271-1.506 1.287-3.676 2.739-5.33 1.397-1.594 4.232-2.747 6.174-2.793 1.942.046 4.777 1.2 6.174 2.793 1.451 1.654 2.467 3.824 2.738 5.33.21 1.167-.092 2.044-.24 2.38 1.082.347 2.002.99 2.464 1.352"/><path fill="#fdfdfd" d="M43.91 24.136c-.271-1.506-1.287-3.676-2.739-5.33-1.397-1.594-4.232-2.747-6.174-2.793v9.5c-.101 1.066-.31 1.786-.485 3.36-.24 2.175-.1 6.866-.1 8.39a5.35 5.35 0 0 0 .585 2.446v.014c.631-.073 1.503-.86 1.688-1.15.185-.291.196-.573.27-.573s.78.215 1.146.157.735-.382.86-.553c.126-.172.112-.32-.227-.77-.338-.45-.775-.59-1.194-.289-.417.3-.9.472-.9.472s-.254-.032-.254-1.793c0-1.517.005-3.44.007-5.223v-.85c0-2.002.586-2.622 1.252-2.785.667-.165 2.835-.218 4.89-.077.388.026.77.11 1.135.226.147-.335.449-1.212.24-2.379"/><path fill="#162653" d="M27.093 55.035c-.028 1.315.007 1.932.231 2.618-.864-1.365-1.368-8.865-1.127-10.644.041-.307.136-.6.27-.882.64-1.345 2.163-2.362 2.85-2.837.83-.573 2.24-1.578 3.492-1.578 1.25 0 2.188.688 2.188.688v1.082s-.638-.656-2.135-.765c-1.413-.103-2.904.982-3.857 2.307q-.084.116-.163.237c-.94 1.43-1.136 2.686-1.224 4.258-.086 1.55-.149 2.852-.15 2.888v.001s-.342 1.076-.375 2.627"/><path fill="#fefefe" d="M37.13 42.718c-1.496.11-2.134.765-2.134.765s-.638-.656-2.135-.765c-1.413-.103-2.904.982-3.857 2.307.179.216.668.652 1.7.685 1.355.042 2.649-.616 2.688-.635l.001-.001s.673.555 1.603.63a3.2 3.2 0 0 0 1.603-.63c.04.02 1.334.678 2.69.636 1.03-.033 1.52-.469 1.699-.685-.953-1.325-2.444-2.41-3.858-2.307"/><path fill="url(#k)" d="M36.193 47.338c-.194-.213-.547-.522-1.194-.587-.648.065-1 .374-1.194.587-.16.175-.294.291-.48.488h3.35c-.188-.197-.322-.313-.482-.488"/><path fill="#4f00ec" d="M34.997 63.835c.303.003.66.101 1.299.347 1.09.42 1.94.695 2.202.776-.792 1.277-1.76 1.951-1.76 1.951s-.485.47-1.31.548h-.003a2.4 2.4 0 0 1-.428.002q-.226.017-.428-.002h-.004c-.824-.078-1.309-.548-1.309-.548s-.968-.674-1.76-1.95a39 39 0 0 0 2.202-.777c.638-.246.996-.344 1.3-.347Z"/><path fill="#ff8701" d="M34.733 11.242v.773s-2.36.453-5.54 2.632c-2.378 1.629-5.424 3.705-8.9 4.917 1.244-.649 2.484-1.534 4.065-2.772 1.582-1.236 2.623-2.277 5.065-3.914 2.158-1.448 4.74-1.617 5.31-1.636"/><path fill="#15134a" d="M27.34 12.613a23 23 0 0 0-2.125 1.946c.572-.78 1.237-1.488 1.941-2.157a17 17 0 0 1 2.29-1.808c.41-.266.833-.515 1.271-.738.44-.218.89-.417 1.354-.586q.175-.062.352-.117.088-.03.177-.057l.18-.048c.12-.03.238-.068.36-.093l.364-.08c.122-.025.245-.04.368-.06l.185-.028.185-.02c.124-.01.247-.025.372-.033l.118-.005v.57l-.084.003-.348.03-.174.018-.172.025c-.115.019-.232.031-.346.055-.46.082-.912.208-1.36.35q-.667.226-1.311.526c-.213.105-.425.208-.633.32-.212.107-.416.228-.621.346a19 19 0 0 0-1.199.777c-.393.271-.773.562-1.145.864Z"/><path fill="#fffdfe" d="M37.333 48.576c-.105-.116-.227-.26-.383-.442a7 7 0 0 0-.278-.309H33.32a8 8 0 0 0-.279.31c-.155.181-.277.325-.382.441 0 0-.264 2.085.005 3.264.27 1.18 1.032 2.055 1.574 3.292a6 6 0 0 1 .294.84c.28.989.344 1.924.463 2.102.12-.178.185-1.112.462-2.101q.035-.123.073-.244.095-.303.222-.598c.542-1.236 1.303-2.112 1.574-3.292.271-1.178.007-3.263.007-3.263"/><path fill="url(#l)" d="M38.995 51.345c-.306-1.322-1.103-2.294-1.305-2.436a2.2 2.2 0 0 1-.355-.332s.264 2.084-.006 3.264-1.032 2.055-1.573 3.291a6 6 0 0 0-.295.842c-.278.989-.344 1.923-.462 2.101-.12-.178-.185-1.114-.463-2.103a6 6 0 0 0-.294-.84c-.542-1.235-1.303-2.111-1.574-3.29-.27-1.18-.006-3.264-.006-3.264a2 2 0 0 1-.355.332c-.2.142-.999 1.114-1.305 2.435a3 3 0 0 0-.052 1.043v.001c.073.585.304 1.132.566 1.68.128.27.264.54.392.814.474 1.023 2.614 4.501 3.09 5.274.477-.773 2.617-4.251 3.091-5.274.128-.274.264-.544.393-.814.261-.547.493-1.095.566-1.68.042-.334.031-.68-.053-1.044"/><path fill="url(#m)" d="M25.692 28.093c.03.116.15.133.412.034l.018.196c-.138 0-.175.147-.089.277.031.047.111.15.228.281l-2.718.251c.061-.337.176-.778.318-1.264.462-.361 1.382-1.006 2.465-1.351a4.8 4.8 0 0 1 1.135-.226c2.054-.142 4.223-.088 4.89.077.666.163 1.25.784 1.25 2.786l.002.849c-.298-.029-.81.075-1.089.172-.105-.259-.412-.51-.78-.822-.322-.275-.693-.598-1.012-1.014-.71-.928-1.685-1.392-2.324-1.425-.64-.033-1.016.102-1.803.532-.788.43-.94.5-.903.647"/><path fill="#250ef0" d="M27.818 54.555c.292 1.386 4.915 5.797 5.614 6.354.7.558.536.961 0 1.07-.452.092-2.879.286-3.62.343a28 28 0 0 1-1.062-1.932c-.543-1.08-.956-1.788-1.285-2.357v-.003a6 6 0 0 1-.14-.377c-.223-.686-.259-1.303-.23-2.618.032-1.55.372-2.626.372-2.626.092-.184.208-.4.35-.637-.014.071-.284 1.433 0 2.783Z"/><path fill="url(#n)" d="M19.976 28.808c.024.87-.035 3.293-.113 5.339-.132 3.428-.361 4.87-1.027 7.556-.667 2.685-2.229 5.333-3.23 6.229s-1.458 1.337-1.458 1.337c6.769-1.147 8.26-7.632 8.26-11.088 0-2.747-.507-5.505-.361-8.76.037-.838.119-1.71.263-2.623.7-4.42 3.625-8.34 3.67-8.4-.026.014-.9.523-3.514 1.595l-.127.052c-1.05.416-2.1.658-2.98.8-1.31.211-2.245.197-2.245.197s-.114.548-.82 4.02c-.342 1.687-.653 3.917-1.108 6.357l-6.84-9.829-.252-.382a1.93 1.93 0 0 0 .797-.929h7.934q-.185.165-.187.165a18 18 0 0 0 3.654-.88c3.476-1.212 6.523-3.29 8.9-4.918 3.18-2.179 5.54-2.632 5.54-2.632V9.298l.265-.008h.001v5.198c-.773.014-3.043.249-5.526 2.319-3.065 2.555-3.885 6.092-4.262 7.092-.273.722-.93 2.54-1.348 3.968-.143.486-.257.927-.318 1.264q-.013.064-.022.123a5.2 5.2 0 0 0-.027 1.243c.081.938.358 1.865.633 2.418.402.803 1.95 3.374 2.778 4.668q.286.445.502.785c.342.543.555.921.649 1.27.038.145.056.283.054.427 0 0 .585-.57 1.2-.956a4 4 0 0 1 .349-.195c.721-.344.82-.462.787-.532s-.537-.417-.386-1.06c.152-.644 1.09-2.392 2.491-2.09 0 0 .126-4.482-.016-4.994l-.022-.064c.279-.097.791-.2 1.088-.172.002 1.783.008 3.706.008 5.223 0 1.76-.254 1.793-.254 1.793s-.484-.172-.901-.472-.855-.162-1.194.29c-.338.45-.352.598-.226.77.125.17.493.495.859.552.366.059 1.072-.157 1.147-.157.073 0 .085.282.27.573.184.29 1.056 1.077 1.687 1.15v.7h-.053c-.721-.016-1.492-.662-1.958-1.097-.468-.434-1.123-.638-1.598-.516 0 0-1.983.663-3.589 2.097-1.606 1.432-2.107 2.383-2.107 2.383s1.615-4.16 1.337-4.25-2.524 1.31-3.31 3.399c-.787 2.088-.616 6.412 0 8.82.614 2.407 1.974 4.39 2.835 6.068a117 117 0 0 0 1.836 3.39l-6.746-3.275c-.56-3.971-.516-9.43-.516-9.43s-1.434.984-2.873 1.659q-.27.126-.535.236a10.3 10.3 0 0 1-1.983.555c-.836.152-1.46.183-1.46.183s.545 1.724 1.231 3.819l-6.77-3.287c.189-.391.244-.841.145-1.273 3.466-.088 7.218-2.28 8.64-5.827 1.524-3.8 1.923-7.758 2.13-10.17"/><path fill="#ddd3c0" d="M31.258 36.836c.339-.451.776-.59 1.194-.29s.901.473.901.473.254-.033.254-1.794c0-1.517-.006-3.439-.007-5.223l-.001-.849c0-2.002-.585-2.622-1.251-2.786-.667-.164-2.836-.218-4.89-.076a4.8 4.8 0 0 0-1.135.225c-.147-.337-.449-1.213-.24-2.38.271-1.506 1.287-3.676 2.738-5.33 1.398-1.594 4.232-2.747 6.175-2.793v9.5c-.102 1.066-.31 1.786-.485 3.36-.24 2.175-.1 6.866-.1 8.39a5.35 5.35 0 0 0 .585 2.446v.014c-.632-.073-1.503-.86-1.688-1.15-.185-.291-.197-.573-.27-.573-.075 0-.78.215-1.147.157-.366-.057-.734-.382-.86-.553-.125-.17-.112-.319.227-.768"/><path fill="url(#o)" d="M33.395 67.435c-3.092.183-5.847-.416-8.153-1.496a31.5 31.5 0 0 0 8.125 1.48z"/><path fill="url(#p)" d="m19.555 56.986 2.18 1.058c.099.612.217 1.177.353 1.664 1.002 3.576 6.008 6.401 9.257 5.866.605.766 1.258 1.426 1.889 1.75 0 0-4.743-.323-7.67-2.135-2.929-1.812-5.136-4.477-5.857-7.533q-.076-.322-.152-.67"/><path fill="url(#q)" d="M26.104 28.127c-.26.099-.382.082-.412-.034-.036-.148.116-.218.902-.648s1.163-.564 1.803-.532c.639.033 1.614.497 2.324 1.426.32.416.69.738 1.013 1.014l-.15.003c-.032-.03-.138-.054-.407-.06q-.039-.029-.076-.053c-.278-.19-.807-.193-1.257.11-.451.303-1.537.933-2.287.573-.529-.254-1.017-.731-1.296-1.046a4 4 0 0 1-.228-.28c-.087-.132-.049-.278.088-.279q.047 0 .108.024c.222.09.946 1.036 1.954.975s1.75-.978 1.75-1.012c0-.032-.831-.654-1.52-.782-.69-.127-1.648.291-2.074.496a3 3 0 0 1-.235.105"/><path fill="url(#r)" d="M31.736 29.352c.366.311.673.563.779.822q.013.031.022.064c.142.513.016 4.995.016 4.995-1.4-.303-2.34 1.446-2.49 2.089-.152.643.352.99.385 1.06.032.07-.066.188-.787.532a3 3 0 0 0-.349.195c.027-.353.095-1.148.209-1.733.151-.774.254-1.454.87-2.347.614-.893 1.154-1.4 1.368-2.195.212-.794.103-2.886.09-2.94-.012-.047-.392-.393-.67-.597.269.005.375.03.405.06z"/><path fill="#c8c090" d="M31.846 29.894c.013.054.123 2.146-.09 2.94-.212.794-.754 1.301-1.368 2.194-.615.894-.718 1.573-.87 2.347-.114.585-.182 1.38-.208 1.733-.616.386-1.2.956-1.2.956a1.5 1.5 0 0 0-.054-.426c.118-.163.274-.453.218-.797-.088-.535-.394-2.163-1.847-4.903s-2.24-4.488-2.24-4.488 2.011.77 2.935 1.163c.923.394 1.59.191 2.3-.36.71-.552 1.075-.972 1.756-.958.276.204.657.55.668.599"/><path fill="#252842" d="M36.564 60.91c.699-.558 5.321-4.969 5.614-6.355.284-1.35.015-2.712 0-2.782v-.001a10 10 0 0 0-.776-1.125q-.205-.255-.408-.514l-.311-.39c-.729-.907-1.535-1.856-2.731-2.93-1-.895-1.28-1.448-1.35-1.738H36.6s-.673.555-1.602.63c-.93-.075-1.603-.63-1.603-.63h-.001c-.07.29-.352.842-1.35 1.739-1.197 1.073-2.003 2.022-2.732 2.93q-.157.195-.31.39l-.409.513a10 10 0 0 0-.776 1.125c-.014.072-.284 1.432 0 2.782.292 1.387 4.915 5.798 5.614 6.355.7.558.536.961 0 1.07-.452.092-2.878.286-3.619.343.614 1.023 1.159 1.785 1.675 2.621l.009.015a39 39 0 0 0 2.203-.777c.639-.246.996-.343 1.299-.346.302.002.66.1 1.298.346 1.091.42 1.94.695 2.203.777l.01-.015c.515-.836 1.06-1.598 1.674-2.62-.74-.058-3.167-.252-3.62-.344-.535-.11-.699-.512 0-1.07Zm-1.566-.754c-.477-.773-2.616-4.251-3.09-5.274-.128-.274-.265-.545-.393-.814-.262-.547-.494-1.095-.566-1.68A2.9 2.9 0 0 1 31 51.343c.306-1.321 1.103-2.293 1.305-2.435.114-.08.221-.184.355-.332.105-.116.227-.26.383-.443a8 8 0 0 1 .279-.309c.187-.195.32-.313.48-.487.194-.213.548-.522 1.195-.587.647.065 1 .374 1.194.587.16.175.293.291.48.487.081.085.172.185.28.31.155.182.276.326.382.442.134.15.241.252.355.332.201.142 1 1.114 1.305 2.435.084.366.094.71.053 1.043v.001c-.073.585-.305 1.132-.566 1.68-.129.27-.265.54-.393.814-.474 1.023-2.614 4.502-3.09 5.274Z"/><path fill="#24254b" d="M31.345 65.574c-3.248.535-8.255-2.29-9.256-5.866a16 16 0 0 1-.355-1.664l7.078 3.436c.206.413 1.265 2.487 2.533 4.094"/><path fill="url(#s)" d="M25.244 65.938h-.002c-2.732-1.28-4.836-3.237-6.125-5.373a8 8 0 0 1-.15-.257c-.782-1.373-1.413-2.992-1.904-4.534l2.495 1.212q.077.35.152.67c.721 3.057 2.928 5.721 5.857 7.533 2.927 1.812 7.67 2.134 7.67 2.134l.132.095q-.152-.007-.303-.017a31.4 31.4 0 0 1-7.822-1.463"/><path fill="#ecedf6" d="m30.47 3.093-.827 1.212q-.346.058-.69.124l1.102-1.618z"/><path fill="#fffffb" d="m29.643 4.305-3.28 4.814c-.505.362-.969.753-1.398 1.164l3.988-5.854q.344-.067.69-.124"/><path fill="#071c50" d="M28.416 27.527c.688.128 1.52.75 1.52.782s-.742.95-1.75 1.012c-1.008.061-1.734-.884-1.955-.975a.3.3 0 0 0-.108-.023l-.018-.196q.104-.038.237-.104c.427-.205 1.385-.622 2.074-.496"/><path fill="#f7b41e" d="M42.527 52.408c-.002-.036-.065-1.337-.15-2.888-.089-1.572-.285-2.827-1.224-4.258a6 6 0 0 0-.163-.237c-.18.217-.668.652-1.7.685-1.355.042-2.65-.616-2.688-.635.07.289.351.841 1.35 1.738 1.196 1.073 2.003 2.022 2.731 2.93q.158.195.31.39.204.258.409.513a9.8 9.8 0 0 1 1.125 1.762"/><path fill="url(#t)" d="M30.706 45.71c-1.032-.033-1.52-.468-1.7-.685a8 8 0 0 0-.163.237c-.94 1.43-1.136 2.686-1.224 4.258-.086 1.55-.149 2.852-.15 2.888.092-.183.207-.4.349-.636a10 10 0 0 1 .777-1.126l.408-.513.31-.39c.73-.908 1.536-1.857 2.732-2.93.999-.896 1.28-1.449 1.35-1.738-.04.02-1.334.678-2.69.635Z"/><path fill="#fdfdfd" d="m29.04 61.033-.218.45-.007-.003-.037-.073-.387-.69z"/><path fill="#272742" d="m28.952 4.43-3.988 5.853q-.398.38-.759.78L8.718 18.495a2 2 0 0 0-.292-.349 32 32 0 0 1 4.988-5.857 31.7 31.7 0 0 1 15.538-7.86Z"/><path fill="#fdfdfd" d="m28.39 60.718.387.69.037.073-7.078-3.436a27 27 0 0 1-.091-.6zm2.997-21.906s1.296.753 1.427.852.262.262-.197.499c-.458.238-4.392 2.907-5.482 4.692-.246.404-.477.827-.685 1.264-.711 1.5-1.15 3.17-1.011 4.812.18 2.121.86 4.553 1.262 5.594.2.517.44.943.764 1.505v.002c.328.57.741 1.277 1.285 2.358q.165.328.323.625l-.033.018-.65-.315a118 118 0 0 1-1.836-3.39c-.86-1.679-2.22-3.66-2.835-6.069-.615-2.407-.787-6.731 0-8.82.787-2.088 3.032-3.488 3.31-3.398.279.09-1.336 4.25-1.336 4.25s.5-.95 2.107-2.384c1.604-1.432 3.587-2.095 3.587-2.095"/><path fill="#05b5cc" d="M29.42 30.254c.71-.552 1.075-.972 1.756-.958q-.039-.029-.076-.054c-.279-.188-.807-.193-1.257.11-.451.304-1.537.934-2.287.574-.53-.255-1.017-.731-1.296-1.046l-2.719.251-.02.123a5.2 5.2 0 0 0-.028 1.243c.081.938.358 1.865.633 2.418.402.803 1.95 3.373 2.778 4.668.19.297.358.556.502.785.342.543.555.921.649 1.27.119-.162.275-.452.218-.796-.088-.536-.394-2.163-1.846-4.903-1.454-2.741-2.24-4.488-2.24-4.488s2.01.77 2.934 1.163c.922.394 1.589.192 2.3-.36Z"/><path fill="url(#u)" d="M42.858 44.855c-1.09-1.785-5.023-4.454-5.482-4.692-.459-.237-.328-.4-.197-.5.131-.098 1.427-.851 1.427-.851-.475-.123-1.131.082-1.598.516s-1.238 1.08-1.959 1.097h-.106c-.721-.016-1.492-.663-1.959-1.097s-1.123-.639-1.598-.516c0 0 1.296.753 1.427.852s.262.262-.197.499c-.459.238-4.392 2.907-5.482 4.692a14 14 0 0 0-.685 1.264l.017.008c.64-1.345 2.163-2.362 2.851-2.837.83-.573 2.24-1.578 3.491-1.578 1.252 0 2.189.688 2.189.688s.938-.688 2.188-.688 2.661 1.005 3.491 1.578c.688.475 2.21 1.492 2.851 2.837l.017-.008q-.315-.657-.686-1.264"/><path fill="url(#v)" d="M26.199 47.01c-.24 1.778.264 9.278 1.127 10.643q.06.182.14.377c-.325-.563-.565-.989-.765-1.505-.4-1.04-1.08-3.472-1.261-5.593-.14-1.642.3-3.314 1.011-4.813l.017.008a3 3 0 0 0-.27.882Z"/><path fill="#fefefe" d="m26.365 9.119-1.482 2.174-1.465.703q.374-.475.79-.932l.337-.162.422-.619c.43-.41.893-.802 1.398-1.164"/><path fill="#8e485f" d="M22.463 19.993c2.614-1.072 3.488-1.58 3.515-1.596-.046.06-2.971 3.982-3.67 8.401a23 23 0 0 0-.264 2.623c-.621.196-1.36.294-2.075.336.004-.583 0-.882 0-.882s.131-3.103.875-5.483c.524-1.68 1.163-2.821 1.493-3.348z"/><path fill="#fefefe" d="m24.967 10.283-.422.618-.338.162q.361-.4.76-.78"/><path fill="#272742" d="m8.934 18.946 14.482-6.95c-.694.877-1.3 1.786-1.88 2.666a31.5 31.5 0 0 1-4.184 5.118H9.017a1.9 1.9 0 0 0-.083-.834"/><path fill="#dd5a79" d="M19.36 20.845c.88-.141 1.929-.383 2.98-.8-.331.526-.97 1.668-1.494 3.347-.744 2.38-.874 5.483-.874 5.483s-.014.34-.043.885c-.994.057-1.932.008-2.433-.03.46-4.542 1.582-8.053 1.864-8.885"/><path fill="#2b66ab" d="M22.047 29.42c-.146 3.256.362 6.014.362 8.761 0 3.457-1.492 9.942-8.26 11.088 0 0 .458-.442 1.458-1.337 1-.896 2.563-3.544 3.229-6.229.667-2.686.896-4.128 1.027-7.556.078-2.046.102-3.527.109-4.39.714-.042 1.453-.14 2.075-.336Z"/><path fill="#fdfdfd" d="m21.737 58.044-2.18-1.057q-.066-.303-.131-.62l2.22 1.076q.043.308.09.601Z"/><path fill="#2b21eb" d="m21.645 57.443-2.22-1.077c-.516-2.504-1.01-5.644-1.171-6.693 1.44-.675 2.874-1.659 2.874-1.659s-.044 5.458.517 9.43Z"/><path fill="#fdfdfd" d="m19.558 56.987-2.496-1.212q-.107-.331-.203-.655l2.567 1.246.132.62Z"/><path fill="#fefcfd" d="M17.114 21.042s.934.014 2.245-.197c-.282.832-1.404 4.343-1.864 8.885l-.004.05c-.525 5.24-1.46 8.484-2.148 10.743-.645 2.12-3.368 7.239-7.614 8.026a2 2 0 0 0-.483-.128v-.785c1.308-1.189 4.293-4.202 5.802-8.161.781-2.049 1.342-4.197 1.779-6.258l.45.698.984-.95-1.076-1.545c.456-2.44.766-4.67 1.11-6.357a983 983 0 0 1 .819-4.021"/><path fill="#ffe3b4" d="M18.966 60.308q.073.13.15.257c-.364.264-1.131.813-1.18.791l-.17-.436c-.516-1.264-1.328-3.643-2.04-5.792l1.335.647c.492 1.54 1.123 3.16 1.905 4.533"/><path fill="url(#w)" d="M17.497 29.73c.5.037 1.439.087 2.433.03-.05.972-.143 2.602-.275 4.147-.207 2.413-.606 6.371-2.13 10.171-1.424 3.547-5.176 5.739-8.641 5.827A1.93 1.93 0 0 0 7.73 48.55c4.246-.788 6.969-5.906 7.614-8.026.689-2.26 1.623-5.503 2.148-10.744q.001-.026.005-.05"/><path fill="#3858d6" d="M18.256 49.673c.16 1.049.654 4.19 1.17 6.693L16.86 55.12a45 45 0 0 1-1.122-4.656c.603-.11 1.315-.284 1.983-.556q.265-.109.535-.235"/><path fill="#15134a" d="M15.725 55.127c.711 2.15 1.523 4.529 2.039 5.792l.17.437s-3.895-1.642-6.038-3.825l-.206-.219-.019-.02a31.6 31.6 0 0 1-3.913-5.175 1.9 1.9 0 0 0 .705-.516z"/><path fill="#fefefe" d="M17.53 19.78v.5h-.706c.123-.112.304-.28.53-.5z"/><path fill="#ff7f16" d="M9.019 19.78h8.335c-.226.22-.406.387-.53.5H8.891q.1-.246.128-.5"/><path fill="#fdfdfd" d="m17.06 55.773-1.334-.647-.218-.662 1.35.655q.098.325.203.654Z"/><path fill="#fefefe" d="M20.29 19.564a18 18 0 0 1-3.653.88s.065-.055.186-.165h.706v-.5h-.176a31.5 31.5 0 0 0 4.185-5.117c.58-.88 1.185-1.79 1.879-2.666l1.465-.703 1.482-2.175c1.98-1.42 4.605-2.415 8.368-2.49v2.1l-.118.004c-.125.008-.248.023-.372.033l-.185.02-.185.029c-.123.02-.247.034-.368.06l-.364.08c-.122.025-.24.062-.36.093l-.18.048q-.09.027-.177.056-.177.056-.352.117c-.464.17-.915.369-1.354.587-.439.222-.86.471-1.271.738a17 17 0 0 0-2.29 1.807c-.704.669-1.37 1.377-1.941 2.157a23 23 0 0 1 2.124-1.946 19 19 0 0 1 1.144-.864 19 19 0 0 1 1.198-.777c.206-.118.41-.24.622-.346a12.6 12.6 0 0 1 1.945-.846c.447-.142.9-.27 1.359-.35.114-.024.23-.037.346-.055l.172-.026q.087-.01.174-.017.175-.017.348-.03l.084-.003v1.943c-.569.02-3.152.188-5.31 1.636-2.442 1.638-3.483 2.678-5.064 3.915-1.582 1.238-2.822 2.123-4.066 2.773Z"/><path fill="#fefcfd" d="m15.186 31.419 1.076 1.545-.984.95-.45-.697c.13-.608.248-1.21.358-1.798"/><path fill="#ffe3b4" d="M15.736 50.463c.144.784.508 2.606 1.122 4.657l-1.35-.655c-.687-2.095-1.23-3.819-1.23-3.819s.622-.03 1.458-.183"/><path fill="#fdfdfd" d="m15.728 55.127-7.263-3.526q.166-.194.275-.422l6.77 3.286z"/><path fill="#e03528" d="M10.687 12.37c.743-.105 1.723-.18 2.728-.08a32 32 0 0 0-4.988 5.857 1.93 1.93 0 0 0-1.704-.492 22 22 0 0 1 1.096-1.643c1.043-1.44 2.314-2.98 2.868-3.643Z"/><path fill="#069ebf" d="M11.898 57.532c2.144 2.182 6.039 3.824 6.039 3.824l.599 1.528a31.8 31.8 0 0 1-6.638-5.352"/><path fill="#ff5b32" d="M10.019 12.479c.19-.037.415-.075.667-.11-.553.662-1.824 2.203-2.867 3.643l-.499-.223a34 34 0 0 1 2.699-3.31"/><path fill="#fefcfd" d="M8.064 17.876a1.92 1.92 0 0 1 .87 1.07 1.94 1.94 0 0 1-.841 2.261l-.24-.363-.623.589.028.043a1.8 1.8 0 0 1-.514-.024 1.9 1.9 0 0 1-.616-.227 1.92 1.92 0 0 1-.9-1.174 1.9 1.9 0 0 1-.022-.916v-.002q.063-.287.214-.548v-.002a1.95 1.95 0 0 1 1.678-.968c.337.002.672.09.966.26Zm-1.578 2.732q.066.038.135.066l.058.023.065.022h.003q.03.01.06.017l.071.015.054.008.037.004a.7.7 0 0 0 .205.004q.036-.002.071-.007l.057-.008h.005l.042-.009.036-.008.018-.004.018-.004a1 1 0 0 0 .183-.066l.046-.023a1 1 0 0 0 .155-.093l.008-.006.038-.03a1 1 0 0 0 .164-.155l.033-.039.03-.037q.04-.056.077-.117l.03-.059a1 1 0 0 0 .06-.14l.014-.037.016-.053.008-.03q.006-.017.008-.035l.006-.029a1 1 0 0 0 .016-.114l.005-.055.001-.06a1 1 0 0 0-.009-.147l-.006-.038a.5.5 0 0 0-.021-.106v-.002l-.01-.037a1 1 0 0 0-.044-.128l-.026-.059a1 1 0 0 0-.078-.139 1 1 0 0 0-.096-.13l-.024-.027-.037-.04-.056-.054-.008-.007a1 1 0 0 0-.134-.102 1.22 1.22 0 1 0-1.284 2.075"/><path fill="#fdfdfd" d="M7.728 48.55a1.94 1.94 0 0 1 1.153 1.355 1.94 1.94 0 0 1-.919 2.11 1.92 1.92 0 0 1-1.898.02v-.001a2 2 0 0 1-.747-.728 1.9 1.9 0 0 1-.258-.928 1.936 1.936 0 0 1 1.686-1.959l.065-.007a1.96 1.96 0 0 1 .918.138m-1.459.808-.001.002-.057.044-.06.053-.06.062a1 1 0 0 0-.118.152l-.001.002a1 1 0 0 0-.076.134l-.003.006-.03.067q-.015.037-.026.074l-.02.066-.005.02a.4.4 0 0 0-.014.065v.001a1.2 1.2 0 0 0 .017.545 1.4 1.4 0 0 0 .123.3 1.22 1.22 0 0 0 1.121.608l.036-.002.072-.009.058-.01.006-.001.072-.015.01-.003.056-.017.02-.007.069-.025.075-.034a1 1 0 0 0 .132-.075l.02-.013.055-.04.002-.003.039-.031v-.003a.4.4 0 0 0 .056-.05 1.2 1.2 0 0 0 .218-.28l.03-.055.009-.02.004-.009q.014-.029.025-.059a1 1 0 0 0 .044-.126l.014-.053.005-.023.007-.036.007-.041.005-.037a1.2 1.2 0 0 0 .003-.26l-.001-.013-.004-.036a1 1 0 0 0-.063-.252l-.025-.062-.001-.003a1.2 1.2 0 0 0-.232-.354l-.018-.02-.019-.018a1 1 0 0 0-.124-.106 1 1 0 0 0-.135-.087l-.006-.003-.035-.018a1 1 0 0 0-.092-.042q-.036-.016-.074-.027-.002 0-.003-.002l-.057-.017-.031-.008-.045-.01-.052-.009q-.009-.003-.017-.002a1 1 0 0 0-.103-.012l-.078-.002a1 1 0 0 0-.105.005l-.031.002-.044.007q-.01 0-.021.003l-.047.008-.002.001-.047.01a.3.3 0 0 0-.054.015q-.02.005-.037.012a1 1 0 0 0-.148.06 1 1 0 0 0-.188.116"/><path fill="#fff3bf" d="m8.719 18.495 15.487-7.432q-.415.458-.789.933l-14.482 6.95a2 2 0 0 0-.216-.45Z"/><path fill="#1e205d" d="M8.066 18.808a1 1 0 0 1 .09.136q.026.043.047.088a1 1 0 0 1 .07.187l.01.037v.003l.014.06.007.045a1 1 0 0 1 .013.109l.002.077-.002.06a1 1 0 0 1-.02.168q-.002.015-.006.029l-.016.065-.016.053q-.005.02-.013.038a1 1 0 0 1-.06.14 1 1 0 0 1-.17.252 1 1 0 0 1-.144.139l-.02.016-.04.03a1 1 0 0 1-.163.099l-.045.022a1 1 0 0 1-.183.066l-.018.004-.018.004-.036.009-.042.008h-.005l-.057.009-.07.006q-.038.004-.077.003l-.06-.002-.042-.002q-.015 0-.027-.003a1 1 0 0 1-.09-.012 1 1 0 0 1-.132-.032h-.002a1 1 0 0 1-.124-.045 1.219 1.219 0 0 1-.193-2.144 1.22 1.22 0 0 1 1.477.105l.008.007.056.054.037.04.024.027zm.224 1 .005-.029zm-.165-.915"/><path fill="#fefcfd" d="m7.853 20.845.24.363c-.25.15-.536.246-.834.27l-.029-.043z"/><path fill="#22245c" d="m7.784 51.271-.038.032z"/><path fill="#1e205d" d="M7.605 20.66"/><path fill="#22245c" d="m7.508 49.231.041.02z"/><path fill="#06c6fc" d="m6.705 15.515.617.274a33 33 0 0 0-1.536 2.34q-.214.196-.364.454v.002a1.9 1.9 0 0 0-.214.548v.002A33.76 33.76 0 0 0 .983 35.377a1.5 1.5 0 0 0-.64-.338 34.53 34.53 0 0 1 6.36-19.524Z"/><path fill="#ff5359" d="M7.258 21.477a1.9 1.9 0 0 0 .834-.27l.252.382 6.84 9.829a78 78 0 0 1-.357 1.799z"/><path fill="#15134a" d="M13.048 39.475c-1.51 3.959-4.495 6.972-5.802 8.161V21.48l.013-.002 7.569 11.74c-.437 2.062-.998 4.21-1.78 6.258Z"/><path fill="#fefcfd" d="M7.247 47.636v.785a2 2 0 0 0-.435-.008l-.066-.071v-.268c.111-.092.282-.24.501-.438"/><path fill="#22245c" d="M7.195 49.136q.026.003.052.01z"/><path fill="#f89120" d="M7.096 21.485q.075 0 .15-.006v26.157c-.218.198-.39.346-.5.439V21.454q.174.03.35.031"/><path fill="#22245c" d="M7 51.56a1.217 1.217 0 0 1-1.2-1.455v-.001l.015-.066.005-.02.02-.065a1 1 0 0 1 .056-.141l.003-.006a1 1 0 0 1 .076-.135l.001-.001.046-.066.04-.05.032-.036.021-.024.04-.038.006-.007a1 1 0 0 1 .11-.09q0-.003.001-.001v-.001l.004-.003.053-.036.059-.037q.037-.021.075-.04a1 1 0 0 1 .239-.087l.046-.01h.003l.046-.009a.8.8 0 0 1 .201-.017 1 1 0 0 1 .143.008l.038.006a1 1 0 0 1 .114.021l.03.008q.03.008.058.018l.003.001a1 1 0 0 1 .125.05l.041.019q.018.008.035.018l.006.002v.001a1 1 0 0 1 .135.087 1 1 0 0 1 .125.106l.018.019.018.019a1.2 1.2 0 0 1 .232.354l.001.003.025.062q.01.022.016.046a1 1 0 0 1 .036.138 1 1 0 0 1 .017.117l.003.051q.006.105-.007.21l-.004.036-.008.04-.007.037a1 1 0 0 1-.062.203l-.026.058-.004.01-.01.02a.4.4 0 0 1-.028.054H8.06l-.033.055a1 1 0 0 1-.148.189q-.016.018-.037.036l-.01.01-.046.04-.038.032-.003.002-.056.041-.018.012-.062.038-.07.037-.004.002a1 1 0 0 1-.16.065l-.067.02-.072.015q-.002.003-.005.002l-.06.01-.071.008a1 1 0 0 1-.1.006"/><path fill="#1e205d" d="M6.807 20.736q-.03-.007-.06-.017z"/><path fill="#22245c" d="M6.792 49.137"/><path fill="#fefcfd" d="m6.746 48.342.065.07-.065.008z"/><path fill="#272742" d="M6.543 21.404a31.6 31.6 0 0 0-3.367 14.255 31.6 31.6 0 0 0 2.79 13.043 1.95 1.95 0 0 1 .781-.281V21.454a2 2 0 0 1-.204-.05"/><path fill="#22245c" d="m6.699 49.157-.043.011zm-.547.301q-.02.018-.039.038l.04-.038Z"/><path fill="#069ebf" d="M6.066 52.035a1.94 1.94 0 0 0 1.693.082 31.7 31.7 0 0 0 4.737 6.029 31.8 31.8 0 0 0 6.04 4.737l.215.543c-1.048.96-4.872-1.355-7.16-3.969a46 46 0 0 1-1.586-1.925l-.003-.003c-1.721-2.196-3.187-4.372-3.187-4.372z"/><path fill="#069ebf" d="M10.001 57.528a47 47 0 0 1-4.446-5.897 2 2 0 0 0 .51.404l.75 1.121S8.28 55.332 10 57.528Z"/><path fill="#ff5b32" d="M5.785 18.13a33 33 0 0 1 1.536-2.34l.499.222a22 22 0 0 0-1.097 1.642c-.35.069-.676.236-.938.477Z"/><path fill="#ece8e7" d="M.984 35.378a33.76 33.76 0 0 1 4.223-16.242 1.93 1.93 0 0 0 .924 2.09 2 2 0 0 0 .412.178A31.6 31.6 0 0 0 3.176 35.66a31.6 31.6 0 0 0 2.79 13.044c-.415.26-.712.66-.839 1.137a2 2 0 0 0-.065.54c-.72-1.254-1.807-3.238-2.707-5.287v-.002l-.002-.003a33.8 33.8 0 0 1-1.306-7.479"/><path fill="#03b9ff" d="M2.422 45.319c.218.676.98 2.79 2.774 5.735a1.9 1.9 0 0 0 .358.577A47 47 0 0 0 10 57.528l.003.003c.516.66 1.056 1.32 1.585 1.925 2.289 2.613 6.113 4.929 7.161 3.968l.09.222c.2.494.128.75-.325 1.165a.77.77 0 0 1-.451.188C10.621 60.714 4.946 53.693 2.422 45.32Z"/><path fill="#0165fe" d="M.95 41.056c.27 1.237.793 2.649 1.401 4.032l.001.002.001.002.017.058.005.017.028.091.009.03q.003.015.01.03c2.524 8.375 8.2 15.396 15.642 19.682-.523.059-1.303-.21-2.26-.627h-.002l-.002-.002a35 35 0 0 1-5.31-4.354A34.5 34.5 0 0 1 .781 41.083l.17-.027Z"/><path fill="#ece8e7" d="M5.198 51.055c-1.794-2.945-2.555-5.06-2.774-5.735l-.01-.031-.009-.03-.009-.03-.018-.061q-.004-.01-.005-.017l-.012-.037-.006-.02c.9 2.048 1.987 4.032 2.707 5.286.004.23.05.458.136.675"/><path fill="#0165fe" d="M2.353 45.088c-.609-1.383-1.132-2.795-1.401-4.032l-.17.026a34 34 0 0 1-.356-3.1 1.5 1.5 0 0 0 .62-.374 33.8 33.8 0 0 0 1.306 7.48Z"/><path fill="#06c6fc" d="M.988 36.1a33 33 0 0 1-.005-.572v-.15a1.5 1.5 0 0 0-.64-.339 33 33 0 0 0 0 .917q.011 1.017.082 2.027a1.5 1.5 0 0 0 .621-.375Q1 36.858.988 36.101Z"/><defs><linearGradient id="a" x1="36.762" x2="50.44" y1="62.155" y2="62.155" gradientUnits="userSpaceOnUse"><stop stop-color="#9d21a4"/><stop offset=".52" stop-color="#f51c90"/><stop offset="1" stop-color="#9801ca"/></linearGradient><linearGradient id="b" x1="41.289" x2="57.607" y1="19.971" y2="48.255" gradientUnits="userSpaceOnUse"><stop stop-color="#ff7300"/><stop offset=".681" stop-color="#ffb933"/><stop offset="1" stop-color="#ffdb4c"/></linearGradient><linearGradient id="d" x1="30.079" x2="39.867" y1="43.589" y2="33.794" gradientUnits="userSpaceOnUse"><stop stop-color="#f1d003"/><stop offset=".561" stop-color="#eb583f"/><stop offset=".923" stop-color="#e4d494"/></linearGradient><linearGradient id="e" x1="45.695" x2="38.964" y1="35.885" y2="29.149" gradientUnits="userSpaceOnUse"><stop stop-color="#fbb03b"/><stop offset=".168" stop-color="#f3bc58"/><stop offset=".441" stop-color="#e8cd82"/><stop offset=".581" stop-color="#e4d492"/><stop offset="1" stop-color="#e4d494"/></linearGradient><linearGradient id="f" x1="41.316" x2="41.316" y1="29.97" y2="26.189" gradientUnits="userSpaceOnUse"><stop stop-color="#c7b299"/><stop offset=".723" stop-color="#f89b23"/></linearGradient><linearGradient id="h" x1="36.628" x2="52.935" y1="61.596" y2="61.596" gradientUnits="userSpaceOnUse"><stop stop-color="#9800ce"/><stop offset=".479" stop-color="#ff288b"/><stop offset="1" stop-color="#f84690"/></linearGradient><linearGradient id="i" x1="36.602" x2="44.755" y1="66.703" y2="66.703" gradientUnits="userSpaceOnUse"><stop stop-color="#f84690"/><stop offset=".52" stop-color="#ff288b"/><stop offset="1" stop-color="#9800ce"/></linearGradient><linearGradient id="j" x1="34.996" x2="34.996" y1="14.488" y2="27.868" gradientUnits="userSpaceOnUse"><stop stop-color="#ff7300"/><stop offset=".958" stop-color="#f7aa46"/><stop offset="1" stop-color="#f7ad49"/></linearGradient><linearGradient id="k" x1="30.783" x2="39.781" y1="47.288" y2="47.288" gradientUnits="userSpaceOnUse"><stop stop-color="#ff7300"/><stop offset=".681" stop-color="#ffb933"/><stop offset="1" stop-color="#ffdb4c"/></linearGradient><linearGradient id="l" x1="30.783" x2="39.781" y1="54.366" y2="54.366" gradientUnits="userSpaceOnUse"><stop stop-color="#ff7300"/><stop offset=".681" stop-color="#ffb933"/><stop offset="1" stop-color="#ffdb4c"/></linearGradient><linearGradient id="o" x1="25.242" x2="33.395" y1="66.703" y2="66.703" gradientUnits="userSpaceOnUse"><stop stop-color="#f84690"/><stop offset=".52" stop-color="#ff288b"/><stop offset="1" stop-color="#9800ce"/></linearGradient><linearGradient id="p" x1="19.555" x2="33.233" y1="62.155" y2="62.155" gradientUnits="userSpaceOnUse"><stop stop-color="#9d21a4"/><stop offset=".52" stop-color="#f51c90"/><stop offset="1" stop-color="#9801ca"/></linearGradient><linearGradient id="q" x1="23.659" x2="33.784" y1="25.939" y2="31.481" gradientUnits="userSpaceOnUse"><stop stop-color="#f1d003"/><stop offset=".561" stop-color="#eb583f"/><stop offset=".923" stop-color="#848d73"/></linearGradient><linearGradient id="r" x1="39.711" x2="29.986" y1="10.726" y2="37.464" gradientUnits="userSpaceOnUse"><stop stop-color="#f1d003"/><stop offset=".609" stop-color="#e65b42"/><stop offset="1" stop-color="#818e93"/></linearGradient><linearGradient id="s" x1="17.062" x2="33.369" y1="61.596" y2="61.596" gradientUnits="userSpaceOnUse"><stop stop-color="#f84690"/><stop offset=".52" stop-color="#ff288b"/><stop offset="1" stop-color="#9800ce"/></linearGradient><linearGradient id="t" x1="27.468" x2="33.395" y1="48.717" y2="48.717" gradientUnits="userSpaceOnUse"><stop stop-color="#ff8f01"/><stop offset=".561" stop-color="#ff9800"/><stop offset="1" stop-color="#ffaf00"/></linearGradient><linearGradient id="u" x1="26.448" x2="43.543" y1="42.452" y2="42.452" gradientUnits="userSpaceOnUse"><stop stop-color="#ff7300"/><stop offset=".681" stop-color="#ffb933"/><stop offset="1" stop-color="#ffdb4c"/></linearGradient><linearGradient id="v" x1="24.784" x2="38.847" y1="52.075" y2="52.075" gradientUnits="userSpaceOnUse"><stop stop-color="#ff8f01"/><stop offset=".561" stop-color="#ff9800"/><stop offset="1" stop-color="#ffaf00"/></linearGradient><linearGradient id="w" x1="10.529" x2="18.309" y1="49.071" y2="35.587" gradientUnits="userSpaceOnUse"><stop stop-color="#009bb6"/><stop offset=".561" stop-color="#2d6db2"/><stop offset=".923" stop-color="#585ca4"/></linearGradient><radialGradient id="c" cx="0" cy="0" r="1" gradientTransform="matrix(10.2658 0 0 10.2586 38.206 27.216)" gradientUnits="userSpaceOnUse"><stop stop-color="#202646"/><stop offset=".349" stop-color="#0025c6"/><stop offset=".833" stop-color="#182948"/></radialGradient><radialGradient id="g" cx="0" cy="0" r="1" gradientTransform="matrix(10.2658 0 0 10.2586 38.208 27.216)" gradientUnits="userSpaceOnUse"><stop stop-color="#202646"/><stop offset=".349" stop-color="#0025c6"/><stop offset=".833" stop-color="#182948"/></radialGradient><radialGradient id="m" cx="0" cy="0" r="1" gradientTransform="matrix(8.01454 0 0 8.00895 32.076 28.002)" gradientUnits="userSpaceOnUse"><stop stop-color="#202646"/><stop offset=".349" stop-color="#0025c6"/><stop offset=".833" stop-color="#182948"/></radialGradient><radialGradient id="n" cx="0" cy="0" r="1" gradientTransform="matrix(8.01454 0 0 8.00896 32.079 28.002)" gradientUnits="userSpaceOnUse"><stop stop-color="#202646"/><stop offset=".349" stop-color="#0025c6"/><stop offset=".833" stop-color="#182948"/></radialGradient></defs></svg>